<svg width="11" height="36" viewBox="0 0 11 36" fill="none" xmlns="http://www.w3.org/2000/svg">
<path d="M5.25 9.5C6.28836 9.5 7.30339 9.22142 8.16675 8.69948C9.03011 8.17755 9.70301 7.4357 10.1004 6.56775C10.4977 5.6998 10.6017 4.74473 10.3991 3.82332C10.1966 2.90191 9.69654 2.05554 8.96231 1.39125C8.22809 0.726946 7.29263 0.274552 6.27423 0.0912721C5.25583 -0.0920077 4.20023 0.00205809 3.24091 0.361574C2.2816 0.721091 1.46167 1.32991 0.884788 2.11104C0.30791 2.89218 2.83482e-06 3.81054 2.83482e-06 4.75C0.00156609 6.00935 0.555192 7.21671 1.53942 8.1072C2.52365 8.99769 3.8581 9.49859 5.25 9.5ZM5.25 2.375C5.76918 2.375 6.2767 2.51429 6.70838 2.77526C7.14006 3.03623 7.47651 3.40715 7.67519 3.84113C7.87387 4.2751 7.92585 4.75264 7.82457 5.21334C7.72328 5.67405 7.47327 6.09723 7.10616 6.42938C6.73905 6.76153 6.27132 6.98773 5.76212 7.07937C5.25292 7.17101 4.72512 7.12397 4.24546 6.94422C3.7658 6.76446 3.35583 6.46005 3.0674 6.06948C2.77896 5.67891 2.625 5.21973 2.625 4.75C2.62578 4.12033 2.9026 3.51665 3.39471 3.0714C3.88682 2.62616 4.55405 2.37571 5.25 2.375ZM5.25 26.125C4.21165 26.125 3.19662 26.4036 2.33326 26.9255C1.4699 27.4475 0.796995 28.1893 0.399635 29.0573C0.00227475 29.9252 -0.101693 30.8803 0.10088 31.8017C0.303452 32.7231 0.803466 33.5695 1.53769 34.2338C2.27192 34.8981 3.20738 35.3505 4.22578 35.5337C5.24418 35.717 6.29978 35.6229 7.25909 35.2634C8.2184 34.9039 9.03834 34.2951 9.61522 33.514C10.1921 32.7328 10.5 31.8145 10.5 30.875C10.4984 29.6157 9.94482 28.4083 8.96059 27.5178C7.97636 26.6273 6.64191 26.1264 5.25 26.125ZM5.25 33.25C4.73083 33.25 4.22331 33.1107 3.79163 32.8497C3.35995 32.5888 3.0235 32.2178 2.82482 31.7839C2.62614 31.3499 2.57416 30.8724 2.67544 30.4117C2.77673 29.951 3.02674 29.5278 3.39385 29.1956C3.76096 28.8635 4.22869 28.6373 4.73789 28.5456C5.24709 28.454 5.77489 28.501 6.25455 28.6808C6.7342 28.8605 7.14417 29.165 7.43261 29.5555C7.72105 29.9461 7.875 30.4053 7.875 30.875C7.87422 31.5047 7.59741 32.1084 7.1053 32.5536C6.61318 32.9988 5.94596 33.2493 5.25 33.25ZM5.25 13.0625C4.21165 13.0625 3.19662 13.3411 2.33326 13.863C1.4699 14.385 0.796995 15.1268 0.399635 15.9948C0.00227475 16.8627 -0.101693 17.8178 0.10088 18.7392C0.303452 19.6606 0.803466 20.507 1.53769 21.1713C2.27192 21.8356 3.20738 22.288 4.22578 22.4712C5.24418 22.6545 6.29978 22.5604 7.25909 22.2009C8.2184 21.8414 9.03834 21.2326 9.61522 20.4515C10.1921 19.6703 10.5 18.752 10.5 17.8125C10.4984 16.5532 9.94482 15.3458 8.96059 14.4553C7.97636 13.5648 6.64191 13.0639 5.25 13.0625ZM5.25 20.1875C4.73083 20.1875 4.22331 20.0482 3.79163 19.7872C3.35995 19.5263 3.0235 19.1554 2.82482 18.7214C2.62614 18.2874 2.57416 17.8099 2.67544 17.3492C2.77673 16.8885 3.02674 16.4653 3.39385 16.1331C3.76096 15.801 4.22869 15.5748 4.73789 15.4831C5.24709 15.3915 5.77489 15.4385 6.25455 15.6183C6.7342 15.798 7.14417 16.1025 7.43261 16.493C7.72105 16.8836 7.875 17.3428 7.875 17.8125C7.87422 18.4422 7.59741 19.0459 7.1053 19.4911C6.61318 19.9363 5.94596 20.1868 5.25 20.1875Z" fill="#9C7A4F"/>
</svg>
