<svg width="21" height="21" viewBox="0 0 21 21" fill="none" xmlns="http://www.w3.org/2000/svg">
<path d="M0.2925 18.3824L9.8925 8.78244L8.4925 7.36244L7.7725 8.07244C7.67999 8.16515 7.5701 8.2387 7.44912 8.28888C7.32815 8.33906 7.19847 8.36489 7.0675 8.36489C6.93653 8.36489 6.80685 8.33906 6.68588 8.28888C6.5649 8.2387 6.45501 8.16515 6.3625 8.07244L5.6525 7.36244C5.5598 7.26993 5.48625 7.16004 5.43607 7.03907C5.38589 6.9181 5.36006 6.78841 5.36006 6.65744C5.36006 6.52648 5.38589 6.39679 5.43607 6.27582C5.48625 6.15485 5.5598 6.04496 5.6525 5.95244L11.3125 0.292444C11.405 0.199741 11.5149 0.126193 11.6359 0.0760115C11.7568 0.0258301 11.8865 0 12.0175 0C12.1485 0 12.2782 0.0258301 12.3991 0.0760115C12.5201 0.126193 12.63 0.199741 12.7225 0.292444L13.4325 1.00244C13.8225 1.39244 13.8225 2.02244 13.4325 2.41244L12.7225 3.10244L14.1425 4.53244C14.235 4.43974 14.3449 4.36619 14.4659 4.31601C14.5868 4.26583 14.7165 4.24 14.8475 4.24C14.9785 4.24 15.1082 4.26583 15.2291 4.31601C15.3501 4.36619 15.46 4.43974 15.5525 4.53244C15.9425 4.92244 15.9425 5.56244 15.5525 5.95244L16.9625 7.36244L17.6725 6.65244C18.0625 6.26244 18.7025 6.26244 19.0925 6.65244L19.7925 7.36244C20.1825 7.75244 20.1825 8.39244 19.7925 8.78244L14.1425 14.4324C13.7525 14.8224 13.1125 14.8224 12.7225 14.4324L12.0225 13.7324C11.9275 13.6402 11.8521 13.5298 11.8005 13.4078C11.749 13.2859 11.7224 13.1548 11.7224 13.0224C11.7224 12.89 11.749 12.759 11.8005 12.637C11.8521 12.5151 11.9275 12.4047 12.0225 12.3124L12.7225 11.6024L11.3125 10.1924L1.7025 19.8024C1.60999 19.8951 1.5001 19.9687 1.37912 20.0189C1.25815 20.0691 1.12847 20.0949 0.9975 20.0949C0.866532 20.0949 0.736849 20.0691 0.615876 20.0189C0.494902 19.9687 0.385014 19.8951 0.2925 19.8024C-0.0975 19.4124 -0.0975 18.7724 0.2925 18.3824ZM17.9925 17.1024C18.5229 17.1024 19.0316 17.3132 19.4067 17.6882C19.7818 18.0633 19.9925 18.572 19.9925 19.1024V20.1024H9.9925V19.1024C9.9925 18.572 10.2032 18.0633 10.5783 17.6882C10.9534 17.3132 11.4621 17.1024 11.9925 17.1024H17.9925Z" fill="white"/>
</svg>
