<svg width="36" height="36" viewBox="0 0 36 36" fill="none" xmlns="http://www.w3.org/2000/svg">
<g clip-path="url(#clip0_206_2361)">
<path d="M30 12H26V14H30V16H32V14C32 13.4696 31.7893 12.9609 31.4142 12.5858C31.0391 12.2107 30.5304 12 30 12Z" fill="#212C3A"/>
<path d="M30 18H32V24H30V18Z" fill="#212C3A"/>
<path d="M30 30H28V32H30C30.5304 32 31.0391 31.7893 31.4142 31.4142C31.7893 31.0391 32 30.5304 32 30V26H30V30Z" fill="#212C3A"/>
<path d="M22 4H6C4.89543 4 4 4.89543 4 6V22C4 23.1046 4.89543 24 6 24H22C23.1046 24 24 23.1046 24 22V6C24 4.89543 23.1046 4 22 4Z" fill="#9C7A4F"/>
<path d="M20 30H26V32H20V30Z" fill="#212C3A"/>
<path d="M14 26H12V30C12 30.5304 12.2107 31.0391 12.5858 31.4142C12.9609 31.7893 13.4696 32 14 32H18V30H14V26Z" fill="#212C3A"/>
</g>
<defs>
<clipPath id="clip0_206_2361">
<rect width="36" height="36" fill="white"/>
</clipPath>
</defs>
</svg>
