<svg width="31" height="26" viewBox="0 0 31 26" fill="none" xmlns="http://www.w3.org/2000/svg">
<g clip-path="url(#clip0_206_2356)">
<path d="M5.8125 8.625H12.5291C12.3878 8.82799 12.2561 9.03645 12.1343 9.25H5.8125C4.67783 9.25 3.57567 9.62728 2.75116 10.3188C1.92404 11.0125 1.4375 11.9742 1.4375 13C1.4375 14.0258 1.92404 14.9875 2.75116 15.6812C3.57567 16.3727 4.67783 16.75 5.8125 16.75H12.1344C12.2561 16.9631 12.3879 17.1716 12.5295 17.375H5.8125C4.37788 17.375 3.016 16.8963 2.02375 16.0641C1.0341 15.234 0.5 14.1291 0.5 13C0.5 11.8709 1.0341 10.766 2.02375 9.93595C3.016 9.10374 4.37788 8.625 5.8125 8.625Z" fill="#212C3A" stroke="#99A4B2"/>
<path d="M31 13C31 15.1549 29.9794 17.2215 28.1626 18.7452C26.3458 20.269 23.8818 21.125 21.3125 21.125C18.7432 21.125 16.2792 20.269 14.4624 18.7452C12.6456 17.2215 11.625 15.1549 11.625 13C11.625 10.8451 12.6456 8.77849 14.4624 7.25476C16.2792 5.73102 18.7432 4.875 21.3125 4.875C23.8818 4.875 26.3458 5.73102 28.1626 7.25476C29.9794 8.77849 31 10.8451 31 13Z" fill="#A7804E"/>
</g>
<defs>
<clipPath id="clip0_206_2356">
<rect width="31" height="26" fill="white"/>
</clipPath>
</defs>
</svg>
