<svg width="43" height="44" viewBox="0 0 43 44" fill="none" xmlns="http://www.w3.org/2000/svg">
<path d="M18.5 13.5H16.75V11.8125H18.5V13.5ZM25.5 13.5H23.75V11.8125H25.5V13.5ZM32.5 11.8125V15.1875H30.75V19.4063C30.75 19.7578 30.6816 20.0874 30.5449 20.395C30.4082 20.7026 30.2214 20.9707 29.9844 21.1992C29.7474 21.4277 29.4694 21.6079 29.1504 21.7397C28.8314 21.8716 28.4896 21.9375 28.125 21.9375H24.5156L18.5 26.8945V21.9375H14.125C13.7604 21.9375 13.4186 21.8716 13.0996 21.7397C12.7806 21.6079 12.5026 21.4277 12.2656 21.1992C12.0286 20.9707 11.8418 20.7026 11.7051 20.395C11.5684 20.0874 11.5 19.7578 11.5 19.4063V15.1875H9.75V11.8125H11.5V9.28125C11.5 8.92969 11.5684 8.6001 11.7051 8.29248C11.8418 7.98486 12.0286 7.7168 12.2656 7.48828C12.5026 7.25977 12.7806 7.07959 13.0996 6.94775C13.4186 6.81592 13.7604 6.75 14.125 6.75H20.25V3.99463C19.9857 3.84522 19.776 3.63867 19.6211 3.375C19.4661 3.11133 19.3841 2.83008 19.375 2.53125C19.375 2.29395 19.4206 2.07422 19.5117 1.87207C19.6029 1.66992 19.7259 1.49414 19.8809 1.34473C20.0358 1.19531 20.2227 1.07227 20.4414 0.975586C20.6602 0.878906 20.888 0.834961 21.125 0.84375C21.3711 0.84375 21.599 0.887695 21.8086 0.975586C22.0182 1.06348 22.2005 1.18213 22.3555 1.33154C22.5104 1.48096 22.638 1.66113 22.7383 1.87207C22.8385 2.08301 22.8841 2.30273 22.875 2.53125C22.875 2.83008 22.7975 3.11133 22.6426 3.375C22.4876 3.63867 22.2734 3.84522 22 3.99463V6.75H28.125C28.4896 6.75 28.8314 6.81592 29.1504 6.94775C29.4694 7.07959 29.7474 7.25977 29.9844 7.48828C30.2214 7.7168 30.4082 7.98486 30.5449 8.29248C30.6816 8.6001 30.75 8.92969 30.75 9.28125V11.8125H32.5ZM29 9.28125C29 9.05274 28.9134 8.85498 28.7402 8.68799C28.5671 8.521 28.362 8.4375 28.125 8.4375H14.125C13.888 8.4375 13.6829 8.521 13.5098 8.68799C13.3366 8.85498 13.25 9.05274 13.25 9.28125V19.4063C13.25 19.6348 13.3366 19.8325 13.5098 19.9995C13.6829 20.1665 13.888 20.25 14.125 20.25H20.25V23.2295L23.8594 20.25H28.125C28.362 20.25 28.5671 20.1665 28.7402 19.9995C28.9134 19.8325 29 19.6348 29 19.4063V9.28125ZM17.3652 15.3721C17.8665 15.8555 18.4408 16.2246 19.0879 16.4795C19.735 16.7344 20.4141 16.8662 21.125 16.875C21.8359 16.875 22.515 16.7476 23.1621 16.4927C23.8092 16.2378 24.3835 15.8643 24.8848 15.3721L26.1152 16.5718C25.4499 17.2134 24.6888 17.7056 23.832 18.0483C22.9753 18.3911 22.0729 18.5625 21.125 18.5625C20.1862 18.5625 19.2884 18.3911 18.4316 18.0483C17.5749 17.7056 16.8092 17.2134 16.1348 16.5718L17.3652 15.3721Z" fill="white"/>
<path d="M4.809 39L0.883 29.9H3.158L6.59 37.96H5.251L8.735 29.9H10.828L6.889 39H4.809ZM12.059 39V32.006H14.087V39H12.059ZM13.073 31.031C12.7004 31.031 12.397 30.9227 12.163 30.706C11.929 30.4893 11.812 30.2207 11.812 29.9C11.812 29.5793 11.929 29.3107 12.163 29.094C12.397 28.8773 12.7004 28.769 13.073 28.769C13.4457 28.769 13.749 28.873 13.983 29.081C14.217 29.2803 14.334 29.5403 14.334 29.861C14.334 30.199 14.217 30.4807 13.983 30.706C13.7577 30.9227 13.4544 31.031 13.073 31.031ZM20.6032 39.104C20.0139 39.104 19.4982 38.974 19.0562 38.714C18.6142 38.454 18.2675 38.0597 18.0162 37.531C17.7735 36.9937 17.6522 36.3177 17.6522 35.503C17.6522 34.6797 17.7692 34.0037 18.0032 33.475C18.2372 32.9463 18.5752 32.552 19.0172 32.292C19.4592 32.032 19.9879 31.902 20.6032 31.902C21.2619 31.902 21.8512 32.0537 22.3712 32.357C22.8999 32.6517 23.3159 33.0677 23.6192 33.605C23.9312 34.1423 24.0872 34.775 24.0872 35.503C24.0872 36.2397 23.9312 36.8767 23.6192 37.414C23.3159 37.9513 22.8999 38.3673 22.3712 38.662C21.8512 38.9567 21.2619 39.104 20.6032 39.104ZM16.4692 41.522V32.006H18.4062V33.436L18.3672 35.516L18.4972 37.583V41.522H16.4692ZM20.2522 37.44C20.5902 37.44 20.8892 37.362 21.1492 37.206C21.4179 37.05 21.6302 36.829 21.7862 36.543C21.9509 36.2483 22.0332 35.9017 22.0332 35.503C22.0332 35.0957 21.9509 34.749 21.7862 34.463C21.6302 34.177 21.4179 33.956 21.1492 33.8C20.8892 33.644 20.5902 33.566 20.2522 33.566C19.9142 33.566 19.6109 33.644 19.3422 33.8C19.0735 33.956 18.8612 34.177 18.7052 34.463C18.5492 34.749 18.4712 35.0957 18.4712 35.503C18.4712 35.9017 18.5492 36.2483 18.7052 36.543C18.8612 36.829 19.0735 37.05 19.3422 37.206C19.6109 37.362 19.9142 37.44 20.2522 37.44ZM30.0788 39.104C29.4895 39.104 28.9738 38.974 28.5318 38.714C28.0898 38.454 27.7431 38.0597 27.4918 37.531C27.2491 36.9937 27.1278 36.3177 27.1278 35.503C27.1278 34.6797 27.2448 34.0037 27.4788 33.475C27.7128 32.9463 28.0508 32.552 28.4928 32.292C28.9348 32.032 29.4635 31.902 30.0788 31.902C30.7375 31.902 31.3268 32.0537 31.8468 32.357C32.3755 32.6517 32.7915 33.0677 33.0948 33.605C33.4068 34.1423 33.5628 34.775 33.5628 35.503C33.5628 36.2397 33.4068 36.8767 33.0948 37.414C32.7915 37.9513 32.3755 38.3673 31.8468 38.662C31.3268 38.9567 30.7375 39.104 30.0788 39.104ZM25.9448 41.522V32.006H27.8818V33.436L27.8428 35.516L27.9728 37.583V41.522H25.9448ZM29.7278 37.44C30.0658 37.44 30.3648 37.362 30.6248 37.206C30.8935 37.05 31.1058 36.829 31.2618 36.543C31.4265 36.2483 31.5088 35.9017 31.5088 35.503C31.5088 35.0957 31.4265 34.749 31.2618 34.463C31.1058 34.177 30.8935 33.956 30.6248 33.8C30.3648 33.644 30.0658 33.566 29.7278 33.566C29.3898 33.566 29.0865 33.644 28.8178 33.8C28.5491 33.956 28.3368 34.177 28.1808 34.463C28.0248 34.749 27.9468 35.0957 27.9468 35.503C27.9468 35.9017 28.0248 36.2483 28.1808 36.543C28.3368 36.829 28.5491 37.05 28.8178 37.206C29.0865 37.362 29.3898 37.44 29.7278 37.44ZM36.1139 41.626C35.7499 41.626 35.3903 41.5697 35.0349 41.457C34.6796 41.3443 34.3893 41.1883 34.1639 40.989L34.9049 39.546C35.0609 39.6847 35.2386 39.793 35.4379 39.871C35.6459 39.949 35.8496 39.988 36.0489 39.988C36.3349 39.988 36.5603 39.9187 36.7249 39.78C36.8983 39.65 37.0543 39.429 37.1929 39.117L37.5569 38.259L37.7129 38.038L40.2219 32.006H42.1719L39.0129 39.429C38.7876 39.9923 38.5276 40.4343 38.2329 40.755C37.9469 41.0757 37.6263 41.301 37.2709 41.431C36.9243 41.561 36.5386 41.626 36.1139 41.626ZM37.3099 39.273L34.1899 32.006H36.2829L38.7009 37.856L37.3099 39.273Z" fill="white"/>
</svg>
